<svg xmlns="http://www.w3.org/2000/svg" baseProfile="tiny" version="1.2" viewBox="0 0 1200 428.7">
  <g fill="none" stroke="#A8DAB5" stroke-miterlimit="10" stroke-width=".7012">
    <path d="M1103.8 229.8v-15.2M1103.8 208.4v-7.5"/>
    <circle cx="1103.8" cy="211.5" r="3.1"/>
  </g>
  <path fill="#FDE293" d="M982.8 72.1c5 0 10.3 11 10.3 27.4s-5.3 27.4-10.3 27.4c-5 0-10.3-11-10.3-27.4s5.4-27.4 10.3-27.4m0-.9c-6.2 0-11.2 12.7-11.2 28.3s5 28.3 11.2 28.3c6.2 0 11.2-12.7 11.2-28.3s-5-28.3-11.2-28.3z"/>
  <path fill="none" stroke="#FDE293" stroke-miterlimit="10" stroke-width=".9375" d="M956.1 90h53.6"/>
  <path fill="#FDE293" d="M982.8 72.1c15.1 0 27.4 12.3 27.4 27.4s-12.3 27.4-27.4 27.4c-15.1 0-27.4-12.3-27.4-27.4s12.3-27.4 27.4-27.4m0-.9c-15.6 0-28.3 12.7-28.3 28.3s12.7 28.3 28.3 28.3c15.6 0 28.3-12.7 28.3-28.3s-12.6-28.3-28.3-28.3z"/>
  <path fill="none" stroke="#FDE293" stroke-miterlimit="10" stroke-width=".9375" d="M956.3 108.9h53.3"/>
  <path fill="#FAD2CF" d="M1146.8 335.3l-22.6-39.2-22.7 39.2"/>
  <path fill="#FDE293" d="M358.6 308h17.3v6.5h-17.3z"/>
  <path fill="#AECBFA" d="M988.4 221.7h26.5v65.4h-26.5z"/>
  <path fill="none" stroke="#4285F4" stroke-miterlimit="10" stroke-width=".9375" d="M997.4 270.5h-18M997.4 256.5h-18"/>
  <path fill="#FAD2CF" d="M200.7 142h32.8v65.4h-32.8z"/>
  <path fill="#FDE293" d="M87.8 317.3h56.4v65.4H87.8z"/>
  <path fill="#EA4335" d="M220.9 331.9h21.8v16.3h-21.8zM699.1 382.2h16.3v16.3h-16.3zM1099.4 81h21.8v16.3h-21.8z"/>
  <path fill="#A8DAB5" d="M613.7 398.8l-46.2-46.2c-9.1 9.1-9.1 23.9 0 33.1l13.2 13.2c9.1 9 23.9 9 33-.1zM801.8 68.6h65.4v29.6h-65.4z"/>
  <circle cx="316.2" cy="382.2" r="4.2" fill="none" stroke="#AECBFA" stroke-miterlimit="10" stroke-width=".9375"/>
  <path fill="#FDE293" d="M442 29.4c1.8 0 3.2 1.4 3.2 3.2 0 1.8-1.4 3.2-3.2 3.2-1.8 0-3.2-1.4-3.2-3.2 0-1.7 1.4-3.2 3.2-3.2m0-.9c-2.3 0-4.2 1.9-4.2 4.2 0 2.3 1.9 4.2 4.2 4.2 2.3 0 4.2-1.9 4.2-4.2 0-2.3-1.9-4.2-4.2-4.2zM442 45.6c1.8 0 3.2 1.4 3.2 3.2 0 1.8-1.4 3.2-3.2 3.2-1.8 0-3.2-1.4-3.2-3.2 0-1.8 1.4-3.2 3.2-3.2m0-1c-2.3 0-4.2 1.9-4.2 4.2s1.9 4.2 4.2 4.2c2.3 0 4.2-1.9 4.2-4.2s-1.9-4.2-4.2-4.2zM442 13.3c1.8 0 3.2 1.4 3.2 3.2 0 1.8-1.4 3.2-3.2 3.2-1.8 0-3.2-1.4-3.2-3.2 0-1.8 1.4-3.2 3.2-3.2m0-.9c-2.3 0-4.2 1.9-4.2 4.2s1.9 4.2 4.2 4.2c2.3 0 4.2-1.9 4.2-4.2s-1.9-4.2-4.2-4.2z"/>
  <path fill="none" stroke="#EA4335" stroke-miterlimit="10" stroke-width=".937490625" d="M287.62068 267.11478l4.73757 4.73757-4.73757 4.73757-4.73757-4.73757z"/>
  <path fill="#A8DAB5" d="M250.10074 77.90068l3.95976-3.95976 3.95976 3.95976-3.95976 3.95976z"/>
  <path fill="none" stroke="#1E8E3E" stroke-miterlimit="10" stroke-width=".937490625" d="M244.00801 63.91323l3.95976 3.95976-3.95976 3.95976-3.95976-3.95976z"/>
  <path fill="none" stroke="#A8DAB5" stroke-miterlimit="10" stroke-width=".937490625" d="M231.75781 51.73419l3.95976 3.95976-3.95976 3.95976-3.95976-3.95976z"/>
  <circle cx="880.3" cy="-6.5" r="4" fill="none" stroke="#174EA6" stroke-miterlimit="10" stroke-width=".9375"/>
  <circle cx="949.1" cy="199.9" r="4" fill="none" stroke="#174EA6" stroke-miterlimit="10" stroke-width=".9375"/>
  <circle cx="865.4" cy="320.7" r="6.4" fill="#FDE293"/>
  <path fill="none" stroke="#E37400" stroke-miterlimit="10" stroke-width=".9375" d="M1005.5 406.7h7.7c9 0 16.3-7.3 16.3-16.3s-7.3-16.3-16.3-16.3"/>
  <path fill="none" stroke="#AECBFA" stroke-miterlimit="10" stroke-width=".9375" d="M806.5 359.8l-11.9-12-11.9 12"/>
  <path fill="none" stroke="#AECBFA" stroke-miterlimit="10" stroke-width=".9342" d="M606.7 73.1l17 17.1 17.1-17.1"/>
  <path fill="none" stroke="#EA4335" stroke-miterlimit="10" stroke-width=".9375" d="M1093.1 161l-13.1 13.1c-6.4 6.4-6.4 16.7 0 23.1s16.7 6.4 23.1 0l20.5-20.5M1124.3 165.4l-18.6 18.6M1123 155.2l-23.1 23.1M1113.7 153l-19.5 19.5"/>
  <path fill="none" stroke="#4285F4" stroke-miterlimit="10" stroke-width=".9375" d="M112.1 116.1V89.8M104 122.4V89.8M82.1 103.6h13.8V89.8M103.3 62.3c9 0 16.3 7.3 16.3 16.3v28.9"/>
  <path fill="none" stroke="#4285F4" stroke-miterlimit="10" stroke-width=".9375" d="M119.6 78.7c0-5.6-2.9-11.1-8.2-14.2-7.8-4.5-17.8-1.8-22.3 6M89.1 70.5l-11 19.3"/>
  <path fill="none" stroke="#34A853" stroke-miterlimit="10" stroke-width=".9375" d="M873.3 341l13.1 13.1c6.4 6.4 16.7 6.4 23.1 0 6.4-6.4 6.4-16.7 0-23.1l-11.3-11.3M891.5 323.6l8.3 8.3M884.5 328l9.6 9.7M865.3 320.4l23 23"/>
  <path fill="none" stroke="#FBBC04" stroke-miterlimit="10" stroke-width=".9375" d="M466.6 87.9V68.2M458.4 81.7v-16M450.2 81.7V63.8M441.9 81.7V48.8M434.5 92.1l-5.1-18.9M434.5 92.1c1.9 7 8.2 12.2 15.8 12.2 9 0 16.3-7.3 16.3-16.3"/>
  <path fill="none" stroke="#FFF" stroke-miterlimit="10" stroke-width=".9375" d="M102.3 330.7h27.4v27.4h-27.4z"/>
  <path fill="#EA4335" d="M252.9 163.9V192.1l-6.2-6.2-.3-.3h-29.9v-21.7h36.4m.9-1h-38.3v23.6H246l7.8 7.8V162.9z"/>
  <path fill="none" stroke="#A8DAB5" stroke-miterlimit="10" stroke-width=".9375" d="M31.6 204.9c0-6 4.9-10.9 10.9-10.9s10.9 4.9 10.9 10.9v24.7h19.4"/>
  <path fill="none" stroke="#34A853" stroke-miterlimit="10" stroke-width=".9375" d="M71.5 204.9c0-6 4.9-10.9 10.9-10.9s10.9 4.9 10.9 10.9"/>
  <path fill="#A8DAB5" d="M83.4 244.5c0 11.6-9.4 21-21 21s-21-9.4-21-21h42z"/>
  <path fill="none" stroke="#A8DAB5" stroke-miterlimit="10" stroke-width=".9375" d="M482.8 379.1h-20.3M454.2 379.1h-8.6"/>
  <path fill="#34A853" d="M458.32992 373.96812l5.16183 5.16183-5.16183 5.16183-5.16183-5.16183z"/>
  <path fill="none" stroke="#FBBC04" stroke-miterlimit="10" stroke-width=".9375" d="M422.8 356.2v26.4M430.9 350v32.6M453.5 373.3h-13.7V387M432.3 414.5c-9 0-16.3-7.3-16.3-16.3v-28.9"/>
  <path fill="none" stroke="#FBBC04" stroke-miterlimit="10" stroke-width=".9375" d="M416 398.2c0 5.6 2.9 11.1 8.2 14.2 7.8 4.5 17.8 1.8 22.3-6M446.5 406.4l11-19.4"/>
  <path fill="#FDE293" d="M72.6 89.3c5.4 0 9.8 4.4 9.8 9.8s-4.4 9.8-9.8 9.8-9.8-4.4-9.8-9.8c.1-5.4 4.4-9.8 9.8-9.8m0-1c-5.9 0-10.7 4.8-10.7 10.7 0 5.9 4.8 10.7 10.7 10.7 5.9 0 10.7-4.8 10.7-10.7.1-5.9-4.7-10.7-10.7-10.7z"/>
  <path fill="#FAD2CF" d="M602.6 140.1h26.5v65.4h-26.5z"/>
  <path fill="#AECBFA" d="M811.2 140.1h26.5v65.4h-26.5z"/>
  <path fill="#A8DAB5" d="M367.4 140.1h26.5v65.4h-26.5z"/>
  <path fill="#FBBC04" d="M466 205.5v-65.4c-12.9 0-23.4 10.5-23.4 23.4v18.6c0 13 10.5 23.4 23.4 23.4z"/>
  <path fill="#FDE293" d="M466 140.1h29.6v65.4H466z"/>
  <path fill="#AECBFA" d="M511.7 140.1l37.7 65.4v-65.4z"/>
  <path fill="#4285F4" d="M587.2 140.1h-37.8v65.4z"/>
  <path fill="#34A853" d="M393.9 140.1c18.1 0 32.7 14.6 32.7 32.7s-14.6 32.7-32.7 32.7v-65.4z"/>
  <path fill="none" stroke="#0D652D" stroke-miterlimit="10" stroke-width=".9375" d="M393.9 193c11.2 0 20.2-9 20.2-20.2s-9-20.2-20.2-20.2h-13.3v15.5"/>
  <path fill="#FBBC04" d="M761.8 189.2c-13.5 0-24.5-11-24.5-24.5s11-24.5 24.5-24.5v49z"/>
  <path fill="#EA4335" d="M629.1 140.1h21.8v16.3h-21.8z"/>
  <path fill="#4285F4" d="M794.6 140.1h16.7v16.3h-16.7zM837.7 140.1h16.7v16.3h-16.7z"/>
  <path fill="#EA4335" d="M629.1 172.8h16.3v16.3h-16.3z"/>
  <path fill="#FBBC04" d="M761.8 140.1h21.8v16.3h-21.8z"/>
  <path fill="#FDE293" d="M761.8 156.5v32.7H740v16.3h21.8c13.5 0 24.5-11 24.5-24.5s-11-24.5-24.5-24.5z"/>
  <path fill="none" stroke="#E37400" stroke-miterlimit="10" stroke-width=".9375" d="M750.3 176.3c-3-3-4.9-7.1-4.9-11.7 0-9 7.3-16.3 16.3-16.3H774"/>
  <path fill="none" stroke="#174EA6" stroke-miterlimit="10" stroke-width=".9375" d="M802.9 148.5h43.2"/>
  <path fill="#34A853" d="M689.9 205.5v-65.4c-12.9 0-23.4 10.5-23.4 23.4v18.6c0 13 10.5 23.4 23.4 23.4z"/>
  <path fill="#A8DAB5" d="M689.9 140.1h29.6v65.4h-29.6z"/>
  <path fill="none" stroke="#0D652D" stroke-miterlimit="10" stroke-width=".9375" d="M682.6 163l-4.2-.1M719.5 163h-29M719.5 182.7h-8.7M702.9 182.7h-6.6"/>
  <circle cx="549.4" cy="178.7" r="4.2" fill="none" stroke="#174EA6" stroke-miterlimit="10" stroke-width=".9375"/>
  <circle cx="564" cy="153.5" r="4.2" fill="none" stroke="#174EA6" stroke-miterlimit="10" stroke-width=".9375"/>
  <path fill="none" stroke="#174EA6" stroke-miterlimit="10" stroke-width=".9375" d="M561.9 157.1l-10.4 18.1"/>
  <circle cx="534.9" cy="153.5" r="4.2" fill="none" stroke="#174EA6" stroke-miterlimit="10" stroke-width=".9375"/>
  <path fill="none" stroke="#174EA6" stroke-miterlimit="10" stroke-width=".9375" d="M537 157.1l10.4 18.1"/>
  <path fill="none" stroke="#0D652D" stroke-miterlimit="10" stroke-width=".937490625" d="M380.63748 168.11388l4.73757 4.73757-4.73757 4.73757-4.73757-4.73757zM706.87352 178.7373l3.95976 3.95976-3.95976 3.95976-3.95976-3.95976zM686.60276 159.0283l3.95976 3.95976-3.95976 3.95976-3.95976-3.95976z"/>
  <circle cx="824.5" cy="162.3" r="4" fill="none" stroke="#174EA6" stroke-miterlimit="10" stroke-width=".9375"/>
  <circle cx="824.5" cy="177.5" r="4" fill="none" stroke="#174EA6" stroke-miterlimit="10" stroke-width=".9375"/>
  <circle cx="824.5" cy="192.6" r="4" fill="none" stroke="#174EA6" stroke-miterlimit="10" stroke-width=".9375"/>
  <path fill="none" stroke="#E37400" stroke-miterlimit="10" stroke-width=".9375" d="M754 197.4h7.7c9 0 16.3-7.3 16.3-16.3s-7.3-16.3-16.3-16.3"/>
  <path fill="none" stroke="#A50E0E" stroke-miterlimit="10" stroke-width=".9375" d="M632.7 181h-16.8v16.8"/>
  <path fill="none" stroke="#A50E0E" stroke-miterlimit="10" stroke-width=".9342" d="M640 148.3h-24.1v24.1"/>
  <path fill="none" stroke="#E37400" stroke-miterlimit="10" stroke-width=".9375" d="M495.6 163h-29.7M495.6 172.8h-29.7M495.6 182.7h-29.7"/>
  <path fill="none" stroke="#202124" stroke-miterlimit="10" stroke-width=".8598" d="M696.4 234.4c9 0 16.3 7.3 16.3 16.3V267c0 9-7.3 16.3-16.3 16.3h-12.3M585.3 234.4c9 0 16.3 7.3 16.3 16.3V267c0 9-7.3 16.3-16.3 16.3S569 276 569 267v-16.3c-.1-9 7.3-16.3 16.3-16.3zM641.3 234.6v48.9M535.6 283.5h-24.3v-8.2M511.3 275.3c0-6.3 5.1-11.4 11.4-11.4 8.1 0 14.7-6.6 14.7-14.7s-6.6-14.7-14.7-14.7h-11.4"/>
  <path fill="none" stroke="#202124" stroke-miterlimit="10" stroke-width=".8598" d="M696.4 234.4c-9 0-16.3 7.3-16.3 16.3s7.3 16.3 16.3 16.3 16.3-7.3 16.3-16.3"/>
  <text fill="#F8F9FA" font-family="'GoogleSansDisplay-Regular'" font-size="22.312" transform="translate(621.3715 553.5746)">
    C
  </text>
  <text fill="#F8F9FA" font-family="'GoogleSansDisplay-Regular'" font-size="22.312" transform="translate(634.7582 553.5746)">
    h
  </text>
  <text fill="#F8F9FA" font-family="'GoogleSansDisplay-Regular'" font-size="22.312" transform="translate(647.5878 553.5746)">
    i
  </text>
  <text fill="#F8F9FA" font-family="'GoogleSansDisplay-Regular'" font-size="22.312" transform="translate(653.2548 553.5746)">
    c
  </text>
  <text fill="#F8F9FA" font-family="'GoogleSansDisplay-Regular'" font-size="22.312" transform="translate(663.6967 553.5746)">
    a
  </text>
  <text fill="#F8F9FA" font-family="'GoogleSansDisplay-Regular'" font-size="22.312" transform="translate(674.8969 553.5746)">
    g
  </text>
  <text fill="#F8F9FA" font-family="'GoogleSansDisplay-Regular'" font-size="22.312" transform="translate(687.8153 553.5746)">
    o
  </text>
  <g>
    <g fill="#FFF">
      <path d="M527.3 554.7c-.7 1.2-1.9 1.8-3.1 1.8-.6 0-1.2-.2-1.8-.5l-12.7-7.4c-1.7-1-2.3-3.2-1.3-5 .7-1.2 1.9-1.8 3.1-1.8.6 0 1.2.2 1.8.5l12.7 7.4c1.7 1.1 2.3 3.3 1.3 5zM533.7 536.4c.7-1.2 1.9-1.8 3.1-1.8.6 0 1.2.2 1.8.5l12.7 7.4c1.7 1 2.3 3.2 1.3 5-.7 1.2-1.9 1.8-3.1 1.8-.6 0-1.2-.2-1.8-.5l-12.7-7.4c-1.7-1.1-2.3-3.3-1.3-5zM526 541.4l-6.4 3.7-5.9-3.4c-.5-.3-1.1-.5-1.7-.6l10.4-6c.6-.3 1.2-.5 1.8-.5 1.3 0 2.5.7 3.1 1.8 1 1.7.4 3.9-1.3 5zM535 549.8l6.4-3.7 5.9 3.4c.5.3 1.1.5 1.7.6l-10.4 6c-.6.3-1.2.5-1.8.5-1.3 0-2.5-.7-3.1-1.8-1-1.8-.4-4 1.3-5z"/>
    </g>
    <g fill="#F8F9FA">
      <path d="M567.4 552.8c-1.3-.7-2.3-1.7-3-3-.7-1.3-1.1-2.7-1.1-4.2s.4-3 1.1-4.2c.7-1.3 1.7-2.3 3-3 1.3-.7 2.6-1.1 4.1-1.1 1.2 0 2.3.2 3.3.6 1 .4 1.9 1 2.5 1.8L576 541c-.5-.6-1.2-1.1-1.9-1.4-.8-.3-1.6-.5-2.5-.5-1.1 0-2.2.3-3.2.8s-1.8 1.3-2.3 2.3c-.6 1-.9 2.1-.9 3.4s.3 2.4.9 3.4c.6 1 1.4 1.8 2.3 2.3 1 .5 2 .8 3.1.8s2-.2 2.7-.5c.7-.3 1.3-.8 1.9-1.3.4-.4.7-.9.9-1.5.2-.6.4-1.2.4-1.9h-5.9v-1.8h7.7c.1.4.1.8.1 1.2 0 1-.2 1.9-.5 2.9-.3.9-.8 1.7-1.5 2.4-1.5 1.6-3.4 2.4-5.9 2.4-1.4-.1-2.8-.4-4-1.2zM581.6 537.6h4.8c1.6 0 3.1.3 4.3 1 1.2.7 2.2 1.6 2.8 2.8.7 1.2 1 2.6 1 4.1 0 1.6-.3 2.9-1 4.1-.7 1.2-1.6 2.1-2.8 2.8-1.2.7-2.6 1-4.3 1h-4.8v-15.8zm4.9 14.2c1.9 0 3.4-.5 4.5-1.6s1.7-2.6 1.7-4.5-.6-3.5-1.7-4.5c-1.1-1.1-2.6-1.6-4.5-1.6h-2.9v12.3h2.9zM600.2 552.8c-1.3-.7-2.3-1.7-3-3-.7-1.3-1.1-2.7-1.1-4.2s.4-3 1.1-4.2c.7-1.3 1.7-2.3 3-3 1.3-.7 2.6-1.1 4.1-1.1 1.2 0 2.3.2 3.3.6 1 .4 1.9 1 2.5 1.8l-1.4 1.4c-.5-.6-1.2-1.1-1.9-1.4-.8-.3-1.6-.5-2.5-.5-1.1 0-2.2.3-3.2.8s-1.8 1.3-2.3 2.3c-.6 1-.9 2.1-.9 3.4s.3 2.4.9 3.4c.6 1 1.4 1.8 2.3 2.3 1 .5 2 .8 3.1.8s2-.2 2.7-.5c.7-.3 1.3-.8 1.9-1.3.4-.4.7-.9.9-1.5.2-.6.4-1.2.4-1.9h-5.9v-1.8h7.7c.1.4.1.8.1 1.2 0 1-.2 1.9-.5 2.9-.3.9-.8 1.7-1.5 2.4-1.5 1.6-3.4 2.4-5.9 2.4-1.3-.2-2.7-.5-3.9-1.3z"/>
    </g>
  </g>
</svg>
